<?xml version="1.0" encoding="UTF-8"?>
<svg id="Logo" xmlns="http://www.w3.org/2000/svg" version="1.1" xmlns:xlink="http://www.w3.org/1999/xlink" viewBox="0 0 495.1 113.4">
  <defs>
    <style>
      .cls-1 {
        fill: #001023;
      }

      .cls-1, .cls-2, .cls-3 {
        stroke-width: 0px;
      }

      .cls-2 {
        fill: url(#linear-gradient);
      }

      .cls-4 {
        opacity: .5;
      }

      .cls-3 {
        fill: url(#linear-gradient-2);
      }
    </style>
    <linearGradient id="linear-gradient" x1="98" y1="109.4" x2="9" y2="68.9" gradientUnits="userSpaceOnUse">
      <stop offset="0" stop-color="#ce5ee3"/>
      <stop offset="1" stop-color="#7561ff"/>
    </linearGradient>
    <linearGradient id="linear-gradient-2" x1="64.9" y1="83.3" x2="47.4" y2="5.6" xlink:href="#linear-gradient"/>
  </defs>
  <g id="Shape_9" data-name="Shape 9" class="cls-4">
    <path class="cls-2" d="M55.7,56.9L11.3,101.1c5.5,5.5,13.1,8.9,21.5,8.9h76.2l-53.3-53.1Z"/>
  </g>
  <g id="Shape_8" data-name="Shape 8">
    <path class="cls-3" d="M33,3.6c-8.4,0-16,3.4-21.5,8.9h0c-5.5,5.5-8.9,13.1-8.9,21.4v45.9c0,8.4,3.4,16,8.9,21.5l44.4-44.4L109.2,3.6H33Z"/>
  </g>
  <g id="KiTOR">
    <g>
      <path class="cls-1" d="M219.3,94.8h-25.6l-31.4-27.5v27.5h-19V18.9h19v27.5l31.4-27.5h25.6l-42.7,38,42.7,38Z"/>
      <path class="cls-1" d="M246.5,94.8h-19V18.9h19v76Z"/>
      <path class="cls-1" d="M323.7,37.9h-23.8v57h-19v-57h-23.8v-19h66.5v19Z"/>
      <path class="cls-1" d="M406.5,71.1c0,6.5-2.3,12.1-7,16.8-4.6,4.6-10.2,7-16.7,7h-28.5c-6.5,0-12.1-2.3-16.8-7-4.6-4.7-7-10.4-7-16.8v-28.5c0-6.5,2.3-12.1,7-16.7,4.7-4.7,10.3-7,16.8-7h28.5c6.5,0,12.1,2.3,16.7,7,4.7,4.6,7,10.2,7,16.7v28.5ZM387.5,69.2v-24.7c0-1.8-.6-3.4-1.9-4.7-1.3-1.3-2.9-1.9-4.7-1.9h-24.7c-1.9,0-3.4.6-4.7,1.9-1.3,1.3-1.9,2.9-1.9,4.7v24.7c0,1.9.6,3.4,1.9,4.7,1.3,1.3,2.9,1.9,4.7,1.9h24.7c1.8,0,3.4-.6,4.7-1.9,1.3-1.3,1.9-2.9,1.9-4.7Z"/>
      <path class="cls-1" d="M489.3,52.1c0,6.5-2.3,12.1-7,16.8s-10.2,7-16.7,7h-7.6l26.6,19h-27.5l-24.7-19v19h-19V18.9h52.3c6.5,0,12.1,2.3,16.7,7,4.7,4.6,7,10.2,7,16.7v9.5ZM470.3,50.2v-5.7c0-1.8-.6-3.4-1.9-4.7-1.3-1.3-2.9-2-4.7-2h-31.4v19h31.4c1.8,0,3.4-.7,4.7-2,1.3-1.3,1.9-2.9,1.9-4.7Z"/>
    </g>
  </g>
</svg>